<svg width="666" height="163" fill="none" xmlns="http://www.w3.org/2000/svg"><path d="M-34.493.68v-.806h-.805V.68h.805Zm36.406 0L2.71.567l-.097-.694h-.7V.68Zm16.232 116.173-.798.111.097.694h.7v-.805Zm.464 0v.805h.7l.097-.694-.797-.111ZM34.84.679v-.805h-.7l-.097.694.797.111Zm36.406 0h.805v-.805h-.805V.68Zm0 162.319v.805h.805v-.805h-.805Zm-24.116 0h-.805v.805h.805v-.805Zm0-122.898h.805v-.806h-.805v.806Zm-.464 0v-.806h-.692l-.104.685.797.12Zm-18.55 122.898v.805h.692l.104-.685-.796-.12Zm-21.334 0-.796.12.104.685h.692v-.805ZM-11.768 40.1l.796-.12-.103-.686h-.693v.806Zm-.464 0v-.806h-.805v.806h.805Zm0 122.898v.805h.805v-.805h-.805Zm-22.26 0h-.806v.805h.805v-.805Zm0-161.514H1.912v-1.61h-36.406v1.61ZM1.115.791l16.231 116.173 1.595-.222L2.71.568 1.116.79Zm17.029 116.867h.464v-1.61h-.464v1.61Zm1.261-.694L35.638.791 34.043.568 17.811 116.742l1.595.222ZM34.84 1.484h36.406v-1.61H34.84v1.61ZM70.441.68v162.319h1.61V.679h-1.61Zm.805 161.514H47.13v1.61h24.116v-1.61Zm-23.31.805V40.1h-1.61v122.898h1.61ZM47.13 39.294h-.464v1.61h.464v-1.61Zm-1.26.685L27.32 162.878l1.592.24L47.462 40.22l-1.592-.24ZM28.116 162.193H6.782v1.61h21.334v-1.61Zm-20.537.685L-10.972 39.979l-1.592.24 18.55 122.899 1.593-.24ZM-11.768 39.294h-.464v1.61h.464v-1.61Zm-1.27.806v122.898h1.611V40.1h-1.61Zm.806 122.093h-22.26v1.61h22.26v-1.61Zm-21.456.805V.679h-1.61v162.319h1.61ZM145.933.679v-.805h-.685l-.11.676.795.13Zm34.55 0 .795-.13-.11-.675h-.685V.68Zm26.435 162.319v.805h.947l-.152-.935-.795.13Zm-25.507 0-.797.114.099.691h.698v-.805Zm-4.638-32.232.797-.115-1.602.115h.805Zm0 .464v.805h.805v-.805h-.805Zm-28.985 0v-.805h-.697l-.1.688.797.117Zm-4.638 31.768v.805h.696l.101-.689-.797-.116Zm-23.652 0-.795-.13-.152.935h.947v-.805Zm54.261-53.797v.805h.927l-.13-.918-.797.113Zm-11.363-80.232.797-.113-.098-.692h-.699v.805Zm-.463 0v-.805h-.702l-.096.694.798.111Zm-11.131 80.232-.797-.111-.127.916h.924v-.805ZM145.933 1.484h34.55v-1.61h-34.55v1.61ZM179.689.81l26.434 162.318 1.59-.259L181.278.55l-1.589.259Zm27.229 161.384h-25.507v1.61h25.507v-1.61Zm-24.71.69-4.638-32.232-1.594.23 4.638 32.231 1.594-.229Zm-6.24-32.117v.464h1.61v-.464h-1.61Zm.805-.341h-28.985v1.61h28.985v-1.61Zm-29.782.688-4.638 31.769 1.594.232 4.637-31.768-1.593-.233Zm-3.841 31.08h-23.652v1.61h23.652v-1.61Zm-22.857.934L146.727.809l-1.589-.26-26.435 162.319 1.59.259Zm54.263-54.039-11.363-80.232-1.594.226 11.362 80.232 1.595-.226Zm-12.16-80.924h-.463v1.61h.463v-1.61Zm-1.261.694-11.13 80.232 1.595.221 11.13-80.231-1.595-.221Zm-10.333 81.148h22.957v-1.61h-22.957v1.61ZM255.235.679v-.805h-.805V.68h.805Zm66.55 9.276-.576.562.007.007.569-.57Zm-7.652 70.029-.301-.747-.504.203v.544h.805Zm0 .463h-.805v.6l.574.172.231-.772Zm12.986 11.363-.739.32.003.008.004.008.732-.336Zm4.406 62.84-.801.084v.005l.801-.089Zm2.318 8.348v.805h1.239l-.503-1.132-.736.327Zm-25.971 0-.759.268.19.537h.569v-.805Zm-6.029-65.16-.631.5.007.01.009.01.615-.52Zm-21.101-4.405v-.805h-.805v.805h.805Zm0 69.565v.805h.805v-.805h-.805Zm-25.507 0h-.805v.805h.805v-.805Zm46.145-96.696-.57-.569-.008.009-.009.008.587.552Zm.695-38.492-.639.489.009.011.009.012.621-.512Zm-21.333-3.942v-.805h-.805v.805h.805Zm0 46.376h-.805v.805h.805v-.805Zm-25.507-68.76h37.797v-1.61h-37.797v1.61Zm37.797 0c13.035 0 22.363 3.07 28.177 9.033l1.153-1.124c-6.244-6.404-16.085-9.519-29.33-9.519v1.61Zm28.184 9.04c5.818 5.818 8.808 14.923 8.808 27.489h1.61c0-12.787-3.039-22.388-9.279-28.628l-1.139 1.139Zm8.808 27.489v9.97h1.61v-9.97h-1.61Zm0 9.97c0 8.345-1.379 15.084-4.083 20.266-2.694 5.164-6.722 8.818-12.109 10.988l.602 1.493c5.744-2.313 10.064-6.234 12.935-11.736 2.862-5.485 4.265-12.505 4.265-21.01h-1.61Zm-16.696 32v.464h1.61v-.463h-1.61Zm.574 1.236c5.965 1.79 10.102 5.417 12.478 10.91l1.478-.639c-2.572-5.947-7.092-9.893-13.493-11.814l-.463 1.543Zm12.485 10.927c2.561 5.573 3.869 13.097 3.869 22.62h1.61c0-9.646-1.321-17.427-4.016-23.293l-1.463.673Zm3.869 22.62v28.522h1.61v-28.522h-1.61Zm0 28.522c0 4.652.155 8.47.468 11.446l1.601-.168c-.305-2.898-.459-6.655-.459-11.278h-1.61Zm.468 11.451c.319 2.872 1.116 5.734 2.384 8.586l1.471-.654c-1.206-2.714-1.955-5.416-2.254-8.11l-1.601.178Zm3.119 7.454h-25.971v1.61h25.971v-1.61Zm-25.211.537c-.913-2.585-1.516-5.004-1.817-7.259l-1.596.213c.318 2.383.952 4.911 1.894 7.582l1.519-.536Zm-1.817-7.259c-.301-2.259-.456-6.383-.456-12.415h-1.611c0 6.026.154 10.25.471 12.628l1.596-.213Zm-.456-12.415v-29.681h-1.611v29.681h1.611Zm0-29.681c0-7.458-1.233-12.888-3.9-16.055l-1.231 1.037c2.279 2.707 3.52 7.635 3.52 15.018h1.611Zm-3.884-16.035c-2.541-3.22-6.942-4.712-12.921-4.712v1.61c5.769 0 9.562 1.445 11.658 4.1l1.263-.998Zm-12.921-4.712h-8.812v1.61h8.812v-1.61Zm-9.617.805v69.565h1.61V93.433h-1.61Zm.805 68.76h-25.507v1.61h25.507v-1.61Zm-24.702.805V.679h-1.61v162.319h1.61Zm33.977-91.948c5.23 0 9.269-1.349 11.949-4.196l-1.173-1.103c-2.267 2.408-5.802 3.688-10.776 3.688v1.61Zm11.932-4.178c2.853-2.853 4.178-7.524 4.178-13.787h-1.61c0 6.104-1.303 10.245-3.707 12.648l1.139 1.139Zm4.178-13.787V40.563h-1.61v12.522h1.61Zm0-12.522c0-5.938-1.087-10.42-3.43-13.265l-1.243 1.024c1.986 2.41 3.063 6.43 3.063 12.241h1.61Zm-3.412-13.242c-2.212-2.893-5.741-4.259-10.379-4.259v1.61c4.328 0 7.292 1.263 9.1 3.627l1.279-.978Zm-10.379-4.259h-11.594v1.61h11.594v-1.61Zm-12.399.806v46.376h1.61V23.868h-1.61Zm.805 47.181h9.275v-1.61h-9.275v1.61Zm123.447-47.181h.805v-.805h-.805v.805Zm-26.666 0h-.806v.805h.806v-.805Zm0-23.189v-.805h-.806V.68h.806Zm78.84 0h.805v-.805h-.805V.68Zm0 23.189v.805h.805v-.805h-.805Zm-26.667 0v-.805h-.805v.805h.805Zm0 139.13v.805h.806v-.805h-.806Zm-25.507 0h-.805v.805h.805v-.805Zm0-139.935h-26.666v1.61h26.666v-1.61Zm-25.861.805V.679h-1.611v23.189h1.611Zm-.805-22.384h78.84v-1.61h-78.84v1.61ZM455.558.68v23.189h1.61V.679h-1.61Zm.805 22.383h-26.667v1.61h26.667v-1.61Zm-27.472.806v139.13h1.611V23.868h-1.611Zm.805 138.325h-25.507v1.61h25.507v-1.61Zm-24.702.805V23.868h-1.61v139.13h1.61ZM504.655.679v-.805h-.806V.68h.806Zm25.507 0h.805v-.805h-.805V.68Zm0 162.319v.805h.805v-.805h-.805Zm-25.507 0h-.806v.805h.806v-.805Zm0-161.514h25.507v-1.61h-25.507v1.61ZM529.357.68v162.319h1.61V.679h-1.61Zm.805 161.514h-25.507v1.61h25.507v-1.61Zm-24.702.805V.679h-1.611v162.319h1.611ZM585.207.679v-.805h-.805V.68h.805Zm32 0 .78-.199-.155-.606h-.625V.68Zm24.811 97.16-.78.199.155.606h.625v-.806Zm.464 0v.805h.805v-.806h-.805Zm0-97.16v-.805h-.805V.68h.805Zm22.725 0h.805v-.805h-.805V.68Zm0 162.319v.805h.805v-.805h-.805Zm-26.203 0-.78.201.156.604h.624v-.805ZM608.395 44.505l.78-.201-.156-.604h-.624v.805Zm-.463 0V43.7h-.806v.805h.806Zm0 118.493v.805h.805v-.805h-.805Zm-22.725 0h-.805v.805h.805v-.805Zm0-161.514h32v-1.61h-32v1.61Zm31.22-.605 24.811 97.159 1.561-.399L617.987.48l-1.56.399Zm25.591 97.765h.464v-1.61h-.464v1.61Zm1.269-.806V.68h-1.61v97.16h1.61Zm-.805-96.354h22.725v-1.61h-22.725v1.61Zm21.92-.805v162.319h1.61V.679h-1.61Zm.805 161.514h-26.203v1.61h26.203v-1.61Zm-25.424.603L609.175 44.304l-1.559.403 30.608 118.492 1.559-.403ZM608.395 43.7h-.463v1.61h.463V43.7Zm-1.269.805v118.493h1.611V44.505h-1.611Zm.806 117.688h-22.725v1.61h22.725v-1.61Zm-21.92.805V.679h-1.61v162.319h1.61Z" fill="#03839E"/></svg>