<svg width="14" height="14" fill="none" xmlns="http://www.w3.org/2000/svg"><circle cx="7" cy="7" r="7" fill="#EB5757"/><path d="M6.998 10.092c-.495 0-.874-.14-1.136-.422-.263-.281-.395-.678-.395-1.192V5.105c0-.513.132-.91.395-1.191.262-.281.641-.422 1.136-.422.495 0 .874.14 1.137.422.263.28.394.678.394 1.191v3.373c0 .514-.131.91-.394 1.192-.263.281-.642.422-1.137.422Zm0-.917c.349 0 .523-.21.523-.632V5.04c0-.421-.174-.632-.523-.632-.348 0-.522.21-.522.632v3.502c0 .421.174.632.522.632Z" fill="#F8F8F8"/></svg>